<svg xmlns="http://www.w3.org/2000/svg" width="153" height="43" viewBox="0 0 153 43" fill="none">
    <path d="M9.97926 12.7467C11.1048 12.7467 12.2196 12.8757 13.32 13.1338C14.4169 13.3919 15.2341 13.6464 15.7718 13.8937L16.5747 14.2809L14.3524 18.74C12.811 17.9191 11.3557 17.5069 9.97926 17.5069C9.21217 17.5069 8.66733 17.593 8.34472 17.765C8.02929 17.9299 7.87157 18.2382 7.87157 18.697C7.87157 18.8045 7.87874 18.9085 7.90025 19.0124C7.92892 19.1092 7.9791 19.206 8.05796 19.2992C8.13324 19.3852 8.20134 19.4641 8.2587 19.5286C8.32322 19.5859 8.43434 19.654 8.58847 19.7293C8.74977 19.8082 8.87523 19.8655 8.96126 19.9014C9.04729 19.9408 9.19067 20.0017 9.3914 20.0878C9.5993 20.1666 9.75702 20.224 9.86455 20.2598C9.9685 20.2993 10.1406 20.3566 10.3807 20.4319C10.6173 20.5107 10.8037 20.5573 10.9399 20.5753C11.7321 20.8047 12.4203 21.0628 13.0046 21.3495C13.596 21.6291 14.2161 22.0091 14.8685 22.4966C15.5281 22.984 16.0335 23.6006 16.3884 24.3462C16.7504 25.0846 16.9332 25.9305 16.9332 26.884C16.9332 31.3574 13.8218 33.5942 7.59915 33.5942C6.19402 33.5942 4.85342 33.3791 3.5845 32.949C2.312 32.5117 1.39796 32.0743 0.845943 31.6442L0 30.9416L2.7529 26.2961C2.9608 26.4789 3.22964 26.694 3.55583 26.9413C3.88919 27.1815 4.49138 27.5113 5.36242 27.9307C6.24062 28.3536 7.00054 28.5615 7.64216 28.5615C9.04729 28.5615 9.74985 28.0884 9.74985 27.1421C9.74985 26.7119 9.56704 26.3786 9.20501 26.1384C8.85014 25.8911 8.24436 25.6151 7.38408 25.3068C6.5238 25.0021 5.85349 24.7189 5.37676 24.4609C4.14369 23.8228 3.1687 23.0988 2.4518 22.2958C1.7349 21.4857 1.37645 20.414 1.37645 19.0841C1.37645 17.0875 2.1507 15.5354 3.69921 14.4243C5.24771 13.3059 7.34106 12.7467 9.97926 12.7467Z" fill="#167A3C"/>
    <path d="M18.6182 33.0205V0H25.4144V15.399H25.4861C27.2532 13.6319 29.1351 12.7465 31.1353 12.7465C32.0995 12.7465 33.0601 12.8755 34.0172 13.1336C34.9814 13.3917 35.9026 13.7896 36.7844 14.3237C37.6734 14.8614 38.3903 15.6213 38.9351 16.6034C39.4871 17.5892 39.7667 18.7362 39.7667 20.0445V33.0205H32.9705V21.8798C32.9705 20.8582 32.6443 19.9657 31.9955 19.1986C31.3432 18.4351 30.4936 18.0516 29.4434 18.0516C28.4182 18.0516 27.4934 18.4494 26.6618 19.2416C25.8302 20.0374 25.4144 20.9156 25.4144 21.8798V33.0205H18.6182Z" fill="#167A3C"/>
    <path d="M44.1706 30.6836C41.9804 28.7336 40.8871 26.2388 40.8871 23.1991C40.8871 20.1523 42.0234 17.6467 44.2996 15.686C46.5722 13.7289 49.3896 12.7467 52.7447 12.7467C56.0496 12.7467 58.8383 13.7324 61.1037 15.7003C63.3692 17.6718 64.5019 20.1666 64.5019 23.1848C64.5019 26.2065 63.3907 28.6977 61.1754 30.6549C58.9566 32.6156 56.1464 33.5942 52.7447 33.5942C49.2175 33.5942 46.3571 32.6264 44.1706 30.6836ZM49.4183 19.844C48.5365 20.7151 48.0992 21.8298 48.0992 23.1848C48.0992 24.5433 48.5186 25.6509 49.3609 26.5112C50.2104 27.3715 51.3252 27.8016 52.7017 27.8016C54.0387 27.8016 55.132 27.3679 55.9851 26.4969C56.8454 25.6294 57.2755 24.5254 57.2755 23.1848C57.2755 21.8298 56.831 20.7151 55.9421 19.844C55.0603 18.9766 53.9813 18.5393 52.7017 18.5393C51.4005 18.5393 50.3072 18.9766 49.4183 19.844Z" fill="#167A3C"/>
    <path d="M86.2582 15.7577C88.1006 17.765 89.0254 20.2311 89.0254 23.1561C89.0254 26.0739 88.1006 28.5436 86.2582 30.5689C84.4229 32.5869 82.0858 33.5942 79.2469 33.5942C76.6266 33.5942 74.4759 32.7769 72.7948 31.1424V42.9999H65.9985V13.3202H72.7087V15.557H72.7948C74.4759 13.6858 76.6266 12.7467 79.2469 12.7467C82.0858 12.7467 84.4229 13.7504 86.2582 15.7577ZM80.4799 26.4969C81.3689 25.6294 81.8134 24.5146 81.8134 23.1561C81.8134 21.8012 81.3868 20.69 80.5373 19.8297C79.6949 18.9694 78.5873 18.5393 77.2109 18.5393C75.8703 18.5393 74.7734 18.9766 73.9131 19.844C73.06 20.7151 72.637 21.8191 72.637 23.1561C72.637 24.5146 73.0743 25.6294 73.9561 26.4969C74.8451 27.3679 75.9276 27.8016 77.2109 27.8016C78.5085 27.8016 79.5981 27.3679 80.4799 26.4969Z" fill="#167A3C"/>
    <path d="M106.62 1.34846L119.409 33.0211H111.653L109.301 26.6837H97.2428L94.9057 33.0211H87.1489L99.9384 1.34846H106.62ZM106.849 20.3463L103.308 11.1413H103.236L99.709 20.3463H106.849Z" fill="#ED8123"/>
    <path d="M118.948 33.0207V13.3202H125.744V15.3992H125.816C127.583 13.6321 129.465 12.7467 131.465 12.7467C132.899 12.7467 134.239 13.0442 135.494 13.6357C136.745 14.2199 137.691 15.1268 138.333 16.3599C140.329 13.9511 142.505 12.7467 144.856 12.7467C146.957 12.7467 148.764 13.3346 150.276 14.5103C151.785 15.686 152.542 17.532 152.542 20.0448V33.0207H145.745V21.88C145.745 20.8405 145.452 19.9659 144.871 19.2562C144.297 18.55 143.437 18.1951 142.29 18.1951C141.286 18.1951 140.519 18.4962 139.996 19.0984C139.48 19.7006 139.193 20.4283 139.136 21.2778V33.0207H132.339V21.88C132.339 20.8405 132.053 19.9659 131.479 19.2562C130.906 18.55 130.038 18.1951 128.884 18.1951C127.83 18.1951 127.042 18.5249 126.518 19.1845C126.002 19.8369 125.744 20.6111 125.744 21.5072V33.0207H118.948Z" fill="#ED8123"/>
</svg>